<svg width="206" height="689" viewBox="0 0 206 689" fill="none" xmlns="http://www.w3.org/2000/svg">
<ellipse cx="102.616" cy="585.616" rx="102.616" ry="102.616" fill="#FF0000"/>
<ellipse cx="102.616" cy="102.616" rx="102.616" ry="102.616" fill="white"/>
<rect y="316.592" width="205.232" height="117.024" fill="white"/>
<path d="M0 316.697H102.613L0 228.384V316.697Z" fill="#7C7C7C"/>
<path d="M102.613 316.697H205.232V228.384L102.613 316.697Z" fill="#7C7C7C"/>
<path d="M204.718 335.992C208.335 355.443 192.502 377.624 167.134 387.279C139.759 397.698 111.651 389.587 104.361 369.161C100.531 358.442 103.201 346.465 110.555 335.992H204.718Z" fill="black"/>
<path d="M0.513839 335.992C-3.1027 355.443 12.7305 377.625 38.0982 387.279C65.4732 397.699 93.5807 389.588 100.871 369.161C104.701 358.443 102.031 346.465 94.6766 335.992H0.513839Z" fill="black"/>
<path d="M144.287 335.992H67.157V354.718H144.287V335.992Z" fill="black"/>
</svg>
