<svg width="2094" height="688" viewBox="0 0 2094 688" fill="none" xmlns="http://www.w3.org/2000/svg">
<g clip-path="url(#clip0_215_635)">
<ellipse cx="174.616" cy="585.616" rx="102.616" ry="102.616" fill="#FF0000"/>
<ellipse cx="174.616" cy="102.616" rx="102.616" ry="102.616" fill="white"/>
<rect x="72" y="316.592" width="205.232" height="117.024" fill="white"/>
<path d="M72 316.697H174.613L72 228.384V316.697Z" fill="#7C7C7C"/>
<path d="M174.613 316.697H277.232V228.384L174.613 316.697Z" fill="#7C7C7C"/>
<path d="M276.718 335.992C280.335 355.443 264.502 377.624 239.134 387.279C211.759 397.698 183.651 389.587 176.361 369.161C172.531 358.442 175.201 346.465 182.555 335.992H276.718Z" fill="black"/>
<path d="M72.5136 335.992C68.8971 355.443 84.7302 377.625 110.098 387.279C137.473 397.699 165.58 389.588 172.871 369.161C176.701 358.443 174.031 346.465 166.676 335.992H72.5136Z" fill="black"/>
<path d="M216.287 335.992H139.157V354.718H216.287V335.992Z" fill="black"/>
<ellipse cx="1221.62" cy="586.232" rx="102.616" ry="102.616" fill="#FF0000"/>
<ellipse cx="1221.62" cy="103.232" rx="102.616" ry="102.616" fill="white"/>
<rect x="1119" y="317.208" width="205.232" height="117.024" fill="white"/>
<path d="M1119 317.314H1221.61L1119 229V317.314Z" fill="#7C7C7C"/>
<path d="M1221.61 317.314H1324.23V229L1221.61 317.314Z" fill="#7C7C7C"/>
<path d="M1323.72 336.608C1327.33 356.059 1311.5 378.241 1286.13 387.895C1258.76 398.314 1230.65 390.204 1223.36 369.777C1219.53 359.059 1222.2 347.081 1229.56 336.608H1323.72Z" fill="black"/>
<path d="M1119.51 336.608C1115.9 356.06 1131.73 378.241 1157.1 387.896C1184.47 398.315 1212.58 390.204 1219.87 369.777C1223.7 359.059 1221.03 347.081 1213.68 336.608H1119.51Z" fill="black"/>
<path d="M1263.29 336.608H1186.16V355.334H1263.29V336.608Z" fill="black"/>
<ellipse cx="523.615" cy="331.616" rx="102.616" ry="102.616" fill="#FF0000"/>
<ellipse cx="523.616" cy="586.616" rx="102.616" ry="102.616" fill="white"/>
<rect x="421" y="62.592" width="205.232" height="117.024" fill="white"/>
<path d="M421 62.6971H523.612L421 -25.6162V62.6971Z" fill="#7C7C7C"/>
<path d="M523.613 62.6971H626.231V-25.6162L523.613 62.6971Z" fill="#7C7C7C"/>
<path d="M625.718 81.9915C629.334 101.443 613.501 123.624 588.133 133.279C560.758 143.698 532.651 135.587 525.36 115.16C521.53 104.442 524.201 92.4646 531.555 81.9915H625.718Z" fill="black"/>
<path d="M421.513 81.9917C417.897 101.443 433.73 123.624 459.097 133.279C486.472 143.698 514.58 135.587 521.871 115.161C525.701 104.442 523.03 92.4648 515.676 81.9917H421.513Z" fill="black"/>
<path d="M565.286 81.9917H488.156V100.718H565.286V81.9917Z" fill="black"/>
<ellipse cx="1570.62" cy="332.232" rx="102.616" ry="102.616" fill="#FF0000"/>
<ellipse cx="1570.62" cy="587.232" rx="102.616" ry="102.616" fill="white"/>
<rect x="1468" y="63.2083" width="205.232" height="117.024" fill="white"/>
<path d="M1468 63.3133H1570.61L1468 -25V63.3133Z" fill="#7C7C7C"/>
<path d="M1570.61 63.3133H1673.23V-25L1570.61 63.3133Z" fill="#7C7C7C"/>
<path d="M1672.72 82.6077C1676.33 102.059 1660.5 124.24 1635.13 133.895C1607.76 144.314 1579.65 136.203 1572.36 115.777C1568.53 105.058 1571.2 93.0808 1578.55 82.6077H1672.72Z" fill="black"/>
<path d="M1468.51 82.6079C1464.9 102.059 1480.73 124.241 1506.1 133.895C1533.47 144.314 1561.58 136.204 1568.87 115.777C1572.7 105.059 1570.03 93.081 1562.68 82.6079H1468.51Z" fill="black"/>
<path d="M1612.29 82.6079H1535.16V101.334H1612.29V82.6079Z" fill="black"/>
<ellipse cx="872.616" cy="77.6157" rx="102.616" ry="102.616" fill="#FF0000"/>
<ellipse cx="872.616" cy="331.616" rx="102.616" ry="102.616" fill="white"/>
<rect x="770" y="571.208" width="205.232" height="117.024" fill="white"/>
<path d="M770 571.313H872.613L770 483V571.313Z" fill="#7C7C7C"/>
<path d="M872.613 571.313H975.232V483L872.613 571.313Z" fill="#7C7C7C"/>
<path d="M974.718 590.608C978.335 610.059 962.502 632.24 937.134 641.895C909.759 652.314 881.651 644.203 874.361 623.777C870.531 613.058 873.201 601.081 880.555 590.608H974.718Z" fill="black"/>
<path d="M770.514 590.608C766.897 610.059 782.73 632.241 808.098 641.895C835.473 652.314 863.58 644.204 870.871 623.777C874.701 613.059 872.031 601.081 864.676 590.608H770.514Z" fill="black"/>
<path d="M914.287 590.608H837.157V609.334H914.287V590.608Z" fill="black"/>
<ellipse cx="1919.62" cy="78.2319" rx="102.616" ry="102.616" fill="#FF0000"/>
<ellipse cx="1919.62" cy="332.232" rx="102.616" ry="102.616" fill="white"/>
<rect x="1817" y="571.824" width="205.232" height="117.024" fill="white"/>
<path d="M1817 571.93H1919.61L1817 483.616V571.93Z" fill="#7C7C7C"/>
<path d="M1919.61 571.93H2022.23V483.616L1919.61 571.93Z" fill="#7C7C7C"/>
<path d="M2021.72 591.224C2025.33 610.675 2009.5 632.857 1984.13 642.511C1956.76 652.93 1928.65 644.82 1921.36 624.393C1917.53 613.675 1920.2 601.697 1927.56 591.224H2021.72Z" fill="black"/>
<path d="M1817.51 591.224C1813.9 610.676 1829.73 632.857 1855.1 642.511C1882.47 652.931 1910.58 644.82 1917.87 624.393C1921.7 613.675 1919.03 601.697 1911.68 591.224H1817.51Z" fill="black"/>
<path d="M1961.29 591.224H1884.16V609.95H1961.29V591.224Z" fill="black"/>
</g>
<defs>
<clipPath id="clip0_215_635">
<rect width="2094" height="688" fill="white"/>
</clipPath>
</defs>
</svg>
