<svg width="457" height="429" viewBox="0 0 457 429" fill="none" xmlns="http://www.w3.org/2000/svg">
<path d="M522.956 118.342C522.68 116.158 522.4 113.974 522.124 111.795C520.998 107.622 518.949 103.992 515.984 100.905C511.112 94.649 505.629 88.8935 499.777 83.6015C487.737 72.7208 474.415 63.0879 459.67 56.4582C450.133 52.1691 440.536 48.3941 430.297 46.2851C419.515 44.0645 408.414 42.7946 397.405 43.1882C376.059 43.9562 355.858 49.2862 336.403 58.0713C328.618 61.5853 321.155 65.8939 314.279 71.0309C306.173 77.0932 298.387 83.5451 292.026 91.5455C288.368 96.1429 284.745 100.85 281.778 105.959C278.857 110.986 276.617 116.399 274.501 121.817C271.456 129.629 270.203 137.786 269.255 146.109C267.604 160.65 269.931 175.94 273.794 189.944C277.999 205.17 284.377 219.847 291.27 233.979C304.008 260.104 319.654 284.671 331.76 311.128C332.744 313.277 333.687 315.447 334.609 317.623C337.68 325.557 340.232 333.724 341.651 342.139C341.957 345.762 342 349.4 341.727 353.021C341.257 355.372 340.632 357.689 339.858 359.956C338.795 362.096 337.597 364.16 336.276 366.14C334.313 368.425 332.184 370.55 329.922 372.527C325.909 375.367 321.644 377.795 317.21 379.873C316.827 380.024 316.449 380.176 316.065 380.322C310.054 382.607 305.01 385.749 301.647 391.579C298.611 396.846 297.298 404.615 299.146 410.542C301.004 416.507 304.59 422.266 310.141 425.297C311.436 426.003 312.83 426.643 314.28 427.185L330.231 427.249C339.541 423.631 348.601 419.406 356.593 413.256C366.919 405.309 376.357 395.871 381.922 383.704C384.009 379.144 386.049 374.42 387.341 369.529C388.622 364.676 389.226 359.59 389.737 354.614C390.593 346.252 389.515 337.768 388.162 329.529C385.538 313.554 378.96 298.22 372.147 283.722C365.247 269.037 357.279 254.907 349.477 240.717C341.135 225.545 332.841 210.281 326.065 194.295C322.185 184.361 318.995 174.117 317.295 163.557C316.824 158.407 316.757 153.231 317.207 148.079C317.931 144.143 318.975 140.285 320.329 136.526C322.191 132.611 324.388 128.883 326.868 125.342C330.515 120.947 334.569 116.942 338.922 113.283C345.575 108.392 352.722 104.273 360.201 100.851C369.331 97.2328 378.803 94.6283 388.478 93.0695C396.883 92.184 405.327 92.1357 413.73 93.0447C421.744 94.4445 429.573 96.708 437.135 99.7582C445.604 103.748 453.608 108.671 461.098 114.358C468.694 120.68 475.749 127.749 481.85 135.586C485.445 140.207 493.325 142.843 498.826 142.865C504.725 142.888 511.783 140.236 515.86 135.722C520.067 131.045 523.214 124.897 522.956 118.342Z" fill="black"/>
<path d="M107.605 212.003C231.595 212.003 332.111 308.488 332.111 427.514H107.605V212.003Z" fill="#F40303"/>
<path d="M0.758789 98.9448H92.7386L0.758789 0.358887V98.9448Z" fill="black"/>
<path d="M92.7383 98.9438H184.723V0.35791L92.7383 98.9438Z" fill="black"/>
<path d="M184.263 120.483C187.505 142.197 173.312 166.958 150.573 177.736C126.035 189.367 100.84 180.313 94.3046 157.51C90.8715 145.545 93.2654 132.174 99.8575 120.483H184.263Z" fill="black"/>
<path d="M1.21853 120.483C-2.02325 142.197 12.1693 166.958 34.9083 177.736C59.4466 189.367 84.6415 180.313 91.1768 157.51C94.6098 145.545 92.216 132.174 85.6238 120.483H1.21853Z" fill="black"/>
<path d="M130.094 120.483H60.9565V141.387H130.094V120.483Z" fill="black"/>
<path d="M107.605 353.262C67.0596 353.262 34.1919 386.503 34.1919 427.513H107.605V353.262Z" fill="black"/>
</svg>
