<svg width="225" height="2126" viewBox="0 0 225 2126" fill="none" xmlns="http://www.w3.org/2000/svg">
<ellipse cx="113.627" cy="1196.75" rx="110.627" ry="110.538" fill="#FF0000"/>
<ellipse cx="110.627" cy="110.538" rx="110.627" ry="110.538" fill="#FF0000"/>
<ellipse cx="110.627" cy="1474.54" rx="110.627" ry="110.538" fill="black"/>
<ellipse cx="113.627" cy="388.538" rx="110.627" ry="110.538" fill="black"/>
<ellipse cx="113.627" cy="666.538" rx="110.627" ry="110.538" transform="rotate(180 113.627 666.538)" fill="white"/>
<ellipse cx="113.627" cy="1752.54" rx="110.627" ry="110.538" transform="rotate(180 113.627 1752.54)" fill="white"/>
<rect x="3" y="895" width="221" height="145" fill="white"/>
<rect x="3" y="1981" width="221" height="145" fill="white"/>
<path d="M3 896.033H113.497L3 787V896.033Z" fill="#939393"/>
<path d="M113.498 896.033H224V787L113.498 896.033Z" fill="#939393"/>
<path d="M3 1982.03H113.497L3 1873V1982.03Z" fill="#939393"/>
<path d="M113.498 1982.03H224V1873L113.498 1982.03Z" fill="#939393"/>
<path d="M223.446 919.854C227.341 943.869 210.291 971.255 182.974 983.174C153.496 996.038 123.229 986.024 115.378 960.805C111.254 947.572 114.13 932.785 122.049 919.854H223.446Z" fill="black"/>
<path d="M3.55298 919.855C-0.341418 943.87 16.7082 971.255 44.0249 983.175C73.5031 996.039 103.77 986.025 111.621 960.806C115.745 947.573 112.869 932.785 104.95 919.855H3.55298Z" fill="black"/>
<path d="M158.372 919.854H75.3159V942.974H158.372V919.854Z" fill="black"/>
<path d="M223.446 2005.85C227.341 2029.87 210.291 2057.25 182.974 2069.17C153.496 2082.04 123.229 2072.02 115.378 2046.81C111.254 2033.57 114.13 2018.78 122.049 2005.85H223.446Z" fill="black"/>
<path d="M3.55298 2005.85C-0.341418 2029.87 16.7082 2057.26 44.0249 2069.18C73.5031 2082.04 103.77 2072.02 111.621 2046.81C115.745 2033.57 112.869 2018.79 104.95 2005.85H3.55298Z" fill="black"/>
<path d="M158.372 2005.85H75.3159V2028.97H158.372V2005.85Z" fill="black"/>
</svg>
