<svg width="457" height="314" viewBox="0 0 457 314" fill="none" xmlns="http://www.w3.org/2000/svg">
<rect width="288.917" height="79.6255" transform="matrix(1 8.74228e-08 8.74228e-08 -1 162.138 294.954)" fill="black"/>
<rect width="249.319" height="84.9062" transform="matrix(4.79335e-08 -1 -1 -3.90379e-08 438.083 270.805)" fill="black"/>
<path d="M308.513 274.786C295.253 264.59 285.779 249.643 282.177 233.232C278.575 216.822 281.139 200.292 289.304 187.28C297.47 174.267 310.569 165.838 325.719 163.846C340.87 161.855 356.831 166.464 370.091 176.659L339.302 225.723L308.513 274.786Z" fill="black"/>
<path d="M345.391 274.786C332.131 264.59 322.657 249.643 319.055 233.232C315.453 216.822 318.016 200.292 326.182 187.28C334.348 174.267 347.447 165.838 362.597 163.846C377.748 161.855 393.709 166.464 406.969 176.659L376.18 225.723L345.391 274.786Z" fill="black"/>
<rect width="288.917" height="79.6255" transform="matrix(-1 -2.61602e-07 -2.62937e-07 1 295.269 18.3296)" fill="white"/>
<rect width="249.319" height="84.9062" transform="matrix(-2.23448e-07 1 1 2.13217e-07 19.3232 42.478)" fill="white"/>
<path d="M148.894 38.4978C162.154 48.6936 171.627 63.6409 175.229 80.0515C178.831 96.4621 176.268 112.992 168.102 126.004C159.936 139.017 146.837 147.446 131.687 149.437C116.537 151.429 100.576 146.82 87.3155 136.624L118.104 87.5611L148.894 38.4978Z" fill="white"/>
<path d="M112.016 38.4978C125.276 48.6936 134.749 63.6409 138.351 80.0515C141.954 96.4621 139.39 112.992 131.224 126.004C123.058 139.017 109.959 147.446 94.809 149.437C79.6586 151.429 63.6977 146.82 50.4376 136.624L81.2266 87.5611L112.016 38.4978Z" fill="white"/>
</svg>
