<svg width="404" height="171" viewBox="0 0 404 171" fill="none" xmlns="http://www.w3.org/2000/svg">
<rect width="184.409" height="48.3801" transform="matrix(-1 8.70898e-08 8.77571e-08 1 403.801 0.879395)" fill="black"/>
<rect width="143.265" height="56.5239" transform="matrix(1.28932e-07 1 1 -1.33494e-07 231.756 26.7573)" fill="black"/>
<path d="M304.795 22.5954C312.74 28.4541 318.416 37.0432 320.574 46.4732C322.732 55.9031 321.196 65.4015 316.304 72.8788C311.411 80.356 303.563 85.1996 294.486 86.3441C285.408 87.4886 275.845 84.8401 267.9 78.9814L286.348 50.7884L304.795 22.5954Z" fill="black"/>
<g clip-path="url(#clip0_261_60)">
<path d="M0.499512 27.1354C0.499512 25.8936 0.51217 24.6556 0.536221 23.4214C0.51217 24.6556 0.499512 25.8936 0.499512 27.1354Z" fill="white"/>
<path d="M174.849 1.25195L88.5811 1.25195V170.023C139.293 153.237 176.663 95.627 176.663 27.1354C176.663 18.305 176.04 9.65659 174.849 1.25195Z" fill="white"/>
<path d="M176.663 27.1354C176.663 25.8936 176.65 24.6556 176.626 23.4214C176.65 24.6556 176.663 25.8936 176.663 27.1354Z" fill="white"/>
<path d="M2.31345 1.25195L88.5811 1.25195V170.023C37.8694 153.237 0.499512 95.627 0.499512 27.1354C0.499512 18.305 1.1223 9.65659 2.31345 1.25195Z" fill="white"/>
</g>
<rect x="80" y="4" width="20" height="157" fill="white"/>
<defs>
<clipPath id="clip0_261_60">
<rect width="176.163" height="168.771" fill="white" transform="translate(0.499512 1.25195)"/>
</clipPath>
</defs>
</svg>
